<svg width="11" height="12" viewBox="0 0 11 12" fill="none" xmlns="http://www.w3.org/2000/svg">
<path fill-rule="evenodd" clip-rule="evenodd" d="M5.05926 1.70603C5.15418 1.61111 5.31647 1.67833 5.31647 1.81256V7.13745C5.31647 7.38707 5.51884 7.58944 5.76846 7.58944C6.01807 7.58944 6.22044 7.38707 6.22044 7.13745V1.81256C6.22044 1.67833 6.38274 1.61111 6.47765 1.70603L8.16079 3.38916C8.33731 3.56567 8.62345 3.56567 8.79996 3.38916C8.97648 3.21265 8.97648 2.92646 8.79996 2.74995L6.51418 0.46417C6.10233 0.0523078 5.43459 0.0523078 5.02274 0.46417L2.73693 2.74995C2.56042 2.92646 2.56042 3.21265 2.73693 3.38916C2.91344 3.56567 3.19963 3.56567 3.37614 3.38916L5.05926 1.70603ZM4.11117 4.5762H2.15256C1.4869 4.5762 0.947266 5.11581 0.947266 5.78149V10.6027C0.947266 11.2684 1.4869 11.808 2.15256 11.808H9.38435C10.05 11.808 10.5897 11.2684 10.5897 10.6027V5.78149C10.5897 5.11581 10.05 4.5762 9.38435 4.5762H7.42574V5.48017H9.38435C9.55074 5.48017 9.68568 5.6151 9.68568 5.78149V10.6027C9.68568 10.7691 9.55074 10.904 9.38435 10.904H2.15256C1.98615 10.904 1.85124 10.7691 1.85124 10.6027V5.78149C1.85124 5.6151 1.98615 5.48017 2.15256 5.48017H4.11117V4.5762Z" fill="#707070"/>
</svg>
